#!OML:ASF F:\VICON\USERDATA\INSTALL\rory3\rory3.ASF
:FULLY-SPECIFIED
:DEGREES
97
root -11.726 17.8981 -0.0443174 -4.69174 7.67797 2.76013
lowerback 11.0139 1.82987 -2.66431
upperback 0.507569 2.02874 -1.24191
thorax -5.69591 1.05198 -0.120582
lowerneck -20.9754 -5.12679 -12.4011
upperneck 30.9066 -5.27531 7.06256
head 14.7892 -2.73383 4.06004
rclavicle 1.48747e-014 3.57812e-015
rhumerus -32.8788 -17.1442 -79.626
rradius 27.3636
rwrist 11.9913
rhand -15.2007 8.04976
rfingers 7.12502
rthumb 10.9712 -21.6436
lclavicle 1.48747e-014 3.57812e-015
lhumerus -36.9059 6.675 82.7993
lradius 34.611
lwrist -7.04163
lhand -15.4875 27.6653
lfingers 7.12502
lthumb 10.6945 57.3731
rfemur -10.7646 -4.05304 12.1978
rtibia 69.4785
rfoot 10.4971 3.57232
rtoes 3.34394
lfemur -0.415465 -0.599135 -32.2424
ltibia 7.06035
lfoot 2.99347 -3.89651
ltoes 11.1104
98
root -11.7011 17.8922 0.0818852 -4.86954 8.44378 2.82115
lowerback 10.9848 1.69345 -2.85026
upperback 0.655596 1.83356 -1.17072
thorax -5.528 0.959763 0.093588
lowerneck -21.0413 -5.1154 -12.5585
upperneck 30.9015 -5.17922 7.04446
head 14.7953 -2.71242 4.09763
rclavicle 2.48791e-015 2.18663e-014
rhumerus -32.9223 -16.8806 -79.7935
rradius 27.6428
rwrist 10.1148
rhand -14.7063 6.7205
rfingers 7.12502
rthumb 11.448 -22.9469
lclavicle 2.48791e-015 2.18663e-014
lhumerus -36.6401 6.58104 82.9883
lradius 35.3257
lwrist -6.69792
lhand -15.4378 28.0332
lfingers 7.12502
lthumb 10.7425 57.7385
rfemur -11.4894 -4.16697 12.0843
rtibia 70.0573
rfoot 9.09165 2.54784
rtoes 2.6455
lfemur 0.0521127 -0.987799 -32.443
ltibia 7.58007
lfoot 2.48591 -4.07278
ltoes 11.181
99
root -11.6779 17.8875 0.205963 -5.01264 9.21649 2.82915
lowerback 10.9788 1.54254 -2.99046
upperback 0.748944 1.62215 -1.10965
thorax -5.42684 0.858582 0.271566
lowerneck -21.0395 -5.03641 -12.6536
upperneck 30.8855 -5.0441 7.10609
head 14.7753 -2.65665 4.16628
rclavicle -1.01598e-014 9.93923e-016
rhumerus -33.1366 -17.4757 -79.3684
rradius 27.1564
rwrist 11.837
rhand -15.0841 7.74807
rfingers 7.12502
rthumb 11.0836 -21.9393
lclavicle -1.01598e-014 9.93923e-016
lhumerus -36.4867 6.3156 83.1796
lradius 36.0532
lwrist -5.80714
lhand -15.4748 28.7856
lfingers 7.12502
lthumb 10.7068 58.4928
rfemur -12.2006 -4.17656 12.0801
rtibia 70.4572
rfoot 7.8826 1.34575
rtoes 2.59363
lfemur 0.482137 -1.39413 -32.5819
ltibia 8.0964
lfoot 1.97493 -4.24158
ltoes 10.9868
100
root -11.6543 17.8819 0.32079 -5.03075 10.0559 2.85558
lowerback 10.9768 1.40847 -3.11964
upperback 0.719733 1.42869 -1.09225
thorax -5.4546 0.767327 0.392226
lowerneck -20.8629 -4.92875 -12.427
upperneck 30.9239 -4.94905 6.97819
head 14.7276 -2.60906 4.09376
rclavicle 1.59276e-014 -9.74045e-015
rhumerus -33.4593 -17.4824 -79.3574
rradius 27.6118
rwrist 10.1675
rhand -14.1799 6.14002
rfingers 7.12502
rthumb 11.9557 -23.4986
lclavicle 1.59276e-014 -9.74045e-015
lhumerus -36.3317 5.93065 83.3724
lradius 36.5117
lwrist -4.86457
lhand -15.6595 29.3376
lfingers 7.12502
lthumb 10.5287 59.0539
rfemur -13.1002 -4.18235 12.0584
rtibia 70.727
rfoot 6.81734 0.0215184
rtoes 3.28773
lfemur 0.731976 -1.88932 -32.731
ltibia 8.65862
lfoot 1.41056 -4.39114
ltoes 11.469
101
root -11.6331 17.8714 0.430912 -5.02256 10.9798 2.80633
lowerback 10.9782 1.26814 -3.18707
upperback 0.695972 1.23587 -1.0509
thorax -5.47666 0.675161 0.503271
lowerneck -20.7253 -4.81334 -11.9935
upperneck 30.9437 -4.87054 6.72719
head 14.6709 -2.55932 3.92941
rclavicle 1.28185e-014 8.54774e-015
rhumerus -33.8154 -17.8803 -79.083
rradius 27.5744
rwrist 10.5576
rhand -14.3075 6.1641
rfingers 7.12502
rthumb 11.8325 -23.4816
lclavicle 1.28185e-014 8.54774e-015
lhumerus -36.0753 5.56957 83.58
lradius 36.9406
lwrist -4.15468
lhand -16.0853 29.4805
lfingers 7.12502
lthumb 10.1179 59.2173
rfemur -14.0105 -4.18575 12.1404
rtibia 70.8306
rfoot 5.68433 -1.19567
rtoes 4.02459
lfemur 0.980523 -2.48052 -32.8034
ltibia 9.13022
lfoot 0.835626 -4.59274
ltoes 11.0242
